<?xml version="1.0"?>
<svg xmlns="http://www.w3.org/2000/svg" id="Layer_1" enable-background="new 0 0 511.3 511.3" height="512px" viewBox="0 0 511.3 511.3" width="512px"><g><path d="m503.2 111c-3.8-2.9-8.5-4.4-13.2-4.4h-26.5c-8.6 0-15.7 6.5-16.5 15-7.8 87.2-80.9 155.4-170 155.4s-162.2-68.2-170-155.3c-.8-8.5-7.9-15-16.5-15l-5.9-66.2c-1-10.8-10-19.1-20.9-19.1h-42.2c-11.4-.1-21.1 8.8-21.5 20.2-.4 11.9 9.1 21.8 21 21.8h23.5l23 256.4v.9c0 .8.2 1.6.3 2.4l.8 9.4c0 .2 0 .4.1.5 2.6 22.1 13.9 41.3 30.2 54.2-9.2 11.8-14.4 26.8-13.4 43.1 2 32.2 28.2 58.1 60.4 59.7 36.5 1.8 66.8-27.5 66.8-63.6 0-7.6-1.3-14.9-3.8-21.7h114.9c-2.7 7.6-4.1 15.8-3.7 24.3 1.4 32.7 27.8 59.4 60.6 60.9 36.2 1.7 66.3-27 66.7-62.8.5-35.6-28.9-64.5-64.6-64.5h-233.7c-16 0-29.9-9.6-35.9-23.6l335.6-19.7c9.2-.5 16.9-7 19.1-15.9l42.7-170.7c2.1-7.9-.7-16.4-7.4-21.7z" data-original="#000000" class="active-path" data-old_color="#000000" fill="#FFFFFF"/><path d="m405.1 127.4c-.5-70.3-57.2-127.4-127.6-127.4s-127.1 57.1-127.7 127.4v1c0 70.4 57.3 127.7 127.7 127.7s127.7-57.3 127.7-127.7c-.1-.4-.1-.7-.1-1 .3-.1-.2 0 0 0zm-95.6 21.9h-11v11c0 11.6-9.4 21-21 21s-21-9.4-21-21v-11h-11c-10.1 0-18.6-7.2-20.6-16.8-.3-1.4-.4-2.8-.4-4.2s.1-2.9.4-4.2c2-9.6 10.4-16.8 20.6-16.8h11v-11c0-11.6 9.4-21 21-21s21 9.4 21 21v11h11c11.6 0 21 9.4 21 21s-9.4 21-21 21z" data-original="#000000" class="active-path" data-old_color="#000000" fill="#FFFFFF"/></g> </svg>
